<svg width="169.87812499999998px" height="114.2px" xmlns="http://www.w3.org/2000/svg" viewBox="165.06093750000002 17.9 169.87812499999998 114.2" style="background: rgba(0, 0, 0, 0);" preserveAspectRatio="xMidYMid"><defs><filter id="editing-hole" x="-100%" y="-100%" width="300%" height="300%"><feFlood flood-color="#000" result="black"></feFlood><feMorphology operator="dilate" radius="2" in="SourceGraphic" result="erode"></feMorphology><feGaussianBlur in="erode" stdDeviation="4" result="blur"></feGaussianBlur><feOffset in="blur" dx="2" dy="2" result="offset"></feOffset><feComposite operator="atop" in="offset" in2="black" result="merge"></feComposite><feComposite operator="in" in="merge" in2="SourceGraphic" result="inner-shadow"></feComposite></filter></defs><g filter="url(#editing-hole)"><g transform="translate(194.4450168609619, 97.0150032043457)"><path d="M34.05-44.03L34.05-44.03Q37.38-44.03 40.16-42.66L40.16-42.66L40.16-42.66Q42.94-41.28 44.58-38.78L44.58-38.78L44.58-38.78Q46.21-36.29 46.21-33.22L46.21-33.22L46.21-33.22Q46.21-25.09 38.85-22.98L38.85-22.98L38.85-22.72L38.85-22.72Q47.23-20.80 47.23-11.71L47.23-11.71L47.23-11.71Q47.23-8.26 45.54-5.60L45.54-5.60L45.54-5.60Q43.84-2.94 40.90-1.47L40.90-1.47L40.90-1.47Q37.95 0 34.43 0L34.43 0L4.74 0L4.74-44.03L34.05-44.03ZM18.88-34.37L18.88-26.88L28.61-26.88L28.61-26.88Q30.02-26.88 30.94-27.87L30.94-27.87L30.94-27.87Q31.87-28.86 31.87-30.34L31.87-30.34L31.87-30.98L31.87-30.98Q31.87-32.38 30.91-33.38L30.91-33.38L30.91-33.38Q29.95-34.37 28.61-34.37L28.61-34.37L18.88-34.37ZM18.88-17.79L18.88-10.24L29.63-10.24L29.63-10.24Q31.04-10.24 31.97-11.23L31.97-11.23L31.97-11.23Q32.90-12.22 32.90-13.70L32.90-13.70L32.90-14.34L32.90-14.34Q32.90-15.81 31.97-16.80L31.97-16.80L31.97-16.80Q31.04-17.79 29.63-17.79L29.63-17.79L18.88-17.79ZM106.37 0L92.35 0L92.35-15.87L92.35-15.87Q92.35-18.82 92.58-21.92L92.58-21.92L92.58-21.92Q92.80-25.02 93.06-27.14L93.06-27.14L93.06-27.14Q93.31-29.25 93.38-29.82L93.38-29.82L93.12-29.82L84.99 0L73.92 0L65.73-29.76L65.47-29.76L65.47-29.76Q65.54-29.18 65.82-27.10L65.82-27.10L65.82-27.10Q66.11-25.02 66.37-21.92L66.37-21.92L66.37-21.92Q66.62-18.82 66.62-15.87L66.62-15.87L66.62 0L53.63 0L53.63-44.03L73.60-44.03L80.26-18.62L80.51-18.62L87.10-44.03L106.37-44.03L106.37 0Z" fill="#ccc"></path></g></g><style>text {
  font-size: 64px;
  font-family: Arial Black;
  dominant-baseline: central;
  text-anchor: middle;
}</style></svg>